<?xml version="1.0" encoding="UTF-8"?>
<svg id="Layer_1" xmlns="http://www.w3.org/2000/svg" version="1.1" viewBox="0 0 1024 512">
  <!-- Generator: Adobe Illustrator 29.1.0, SVG Export Plug-In . SVG Version: 2.1.0 Build 142)  -->
  <defs>
    <style>
      .st0 {
        fill: #fff;
      }
    </style>
  </defs>
  <path class="st0" d="M842.9,195.8v35.8h72.5c14.9,0,22.3-6,22.3-18.1s-7.4-17.8-22.3-17.8h-72.5ZM842.9,316h78.3c7.7,0,14-1.8,18.7-5.6,4.7-4,7-9.4,7-16.2,0-14-8.6-21-25.7-21h-78.3v42.9h0ZM770.1,361.5v-211.2h180.8c23.5,0,40.4,6.1,50.8,18.4,7.5,8.9,11.3,20.1,11.3,33.8s-2.5,18.8-7.6,26.6c-4.9,7.9-11.3,13.2-19.3,16v.6c25.3,5.5,37.9,23.2,37.9,53s-4.8,30.2-14.4,40.8c-13.5,14.8-35.1,22.1-64.9,22.1h-174.7.1ZM526.5,197.6v-47.3h233.1v47.3h-80.1v163.9h-72.8v-163.9h-80.2ZM349.6,197.6v46.1h70.1c18.2,0,27.2-7.8,27.2-23.4s-9.1-22.8-27.2-22.8h-70.1ZM523.1,361.5h-77.2v-31.3c0-15.6-2.7-26.2-8-31.9-4.3-4.7-11.5-7.1-21.7-7.1h-66.7v70.4h-72.8v-211.2h175c48.7,0,73.1,19.6,73.1,58.9s-11.6,42.5-34.9,48.3v.6c15.9,5.1,24.7,17.8,26.3,37.9l6.8,65.7v-.2ZM0,361.5v-211.2h157.8c69.3,0,104,35.2,104,105.6s-37.8,105.6-113.5,105.6H0ZM72.8,197.6v116.5h60.9c35.3,0,52.9-19.5,52.9-58.6s-19.6-58-58.7-58h-55.1Z"/>
</svg>