<?xml version="1.0" encoding="UTF-8"?>
<svg id="Layer_1" xmlns="http://www.w3.org/2000/svg" version="1.1" viewBox="0 0 1024 512">
  <!-- Generator: Adobe Illustrator 29.1.0, SVG Export Plug-In . SVG Version: 2.1.0 Build 142)  -->
  <defs>
    <style>
      .st0 {
        fill: #fff;
      }
    </style>
  </defs>
  <path class="st0" d="M143.7,104.2c71.3-3.7,106.8,65.2,60.8,120.2-2.7,3.2-19.4,17.6-19,19.1,51.7,28.7,42.5,102.8,8.9,142.4s-97.5,55.5-145.8,42.6c-38.5-10.2-43.3-35.7-39.1-71.6,5-43,20.1-86.8,25.5-130.4,4.4-36.3-4.7-70.5,26.5-96.8,18.9-15.9,57.8-24.2,82.2-25.5ZM132.5,170.4c-19.7,2.4-25.2,24.9-23.3,41.8,2.4,21.2,25.7,6.1,33.6-3.4,11.7-14,14.9-41.5-10.3-38.4ZM108.9,285.9c-13.8,2.3-18.1,22.2-18.8,33.9-1.2,20.7,3.1,28.4,24.4,19.9,9.7-3.9,19.7-11.3,21.4-22.3,3.2-20.6-4.1-35.3-26.9-31.4ZM805.9,148c3,21.1,8.5,46.3,15.5,66.4,9.1,25.9,22.1,37.5,12.4,67.3-10.8,33.4-90.9,114.7-28.5,138.3,32.2,12.2,60.3-10.3,73.5-38.4,17-36.2,20.7-68.6,44.4-104.8,22.2-33.8,88.6-92.3,92.2-128.7,3.3-33.1-20.1-58.1-53.6-45.7s-39.4,61-60.2,82.2c-10.5,10.6-19.7,4.5-21.6-8.7-4.9-34.4,15.3-88.2-42-85.2s-36.2,28.3-32.1,57.2ZM666.2,100.6c-16.8,20.6-15.8,83.7-18.6,111.5-2.6,25-6.1,50.1-11.8,74.6-6.4,28.1-19.3,62.6-19.3,91.2.1,53.8,78.8,44.5,92.1,2.9,9.2-28.8-7.9-75,4.6-99.7,11-21.6,41-1.6,54.1-16.5s12.6-47-3.9-54.1c-15.1-6.6-46.8,9.3-43-19.6,4.1-30.9,42.3-13.8,59.7-25.5,14.8-10,17.4-45.6,15-61.8-3.6-25.1-35.4-25.2-54.9-24.1s-62,6.1-74.3,21.1ZM513.1,123.7c-11.2,16.5-9.5,60.8-11.4,81.7-2.5,27.8-5.7,55.2-10.4,82.7-4.7,27.5-14.2,59.2-15.4,86.7-1.8,41.7,32.4,50.4,64.3,31.8,40.9-23.9,17.3-73.6,21-110.2s36.4-11.6,52-28.7c9-9.9,9.2-39.5-3.8-45.3-10-4.5-21.4,2.4-32.6,0-17.3-3.7-8-30.5,3-37.5s34.7.4,47.5-11.9c11.4-11.1,14.9-42.1,13.4-57.2-2.4-23.6-27.6-24.2-46.2-22.7-20.9,1.7-69.2,12.7-81.5,30.7ZM350.2,116.6c-17.9,11.1-18.4,47.6-16.7,66.4,2.4,26.9,25.4,12.7,39,18.2,5.5,2.2,6.9,11.3,7,16.6,1.1,51.6-32.6,112.6-32.1,165,.5,57.8,77.6,39,88.8-1.8,7.2-26.3-.3-61.9-1.7-89.2-1.1-22.3-2.6-62,3.7-82.7,7.8-25.9,28.5-9.9,44.5-21.7s14.7-48.8,10.5-63.1c-6.8-23.3-35-19.6-54.4-18.9-20.8.7-72.2,1.2-88.5,11.3ZM248.3,213.3c-3.3,57.5-16.2,113.6-24.5,170.4,1.3,14.4,2.1,27.2,17.3,32.9,20.7,7.8,49.8-2.3,63.2-19.5,18.6-23.9,9.6-66.9,9-95.3-.7-30.9-.1-62.3,2.3-93.1,1.5-18.7,5.6-38.8,6.7-57.2,1.7-28.6-7.5-36-36.1-32.8-46.6,5.3-35.9,60.4-37.8,94.5ZM960.1,343.1c45.5-2,54.5,67.4,10.8,78.2-55,13.6-64.7-75.8-10.8-78.2Z"/>
</svg>